# xmcd
#
# Track frame offsets: 
#        150
#        23692
#        49796
#        69344
#        100410
#        125265
#        147684
#        167986
#        192183
#        218126
#        237877
#        265462
#        287903
#
# Disc length: 4032 seconds
#
# Revision: 0
# Processed by: cddbd v1.5.2PL0 Copyright (c) Steve Scherf et al.
# Submitted via: ExactAudioCopy v0.95b4
#
DISCID=c70fbe0d
DTITLE=Alan Morse - Four O'Clock and Hysteria
DYEAR=2007
DGENRE=Acoustic
TTITLE0=Cold Fusion
TTITLE1=Return To Whatever
TTITLE2=Drive In Shuffle
TTITLE3=R Bluz
TTITLE4=First Funk
TTITLE5=Dschungel Cruz
TTITLE6=The Rite Of Left
TTITLE7=Chroma
TTITLE8=Spanish Steppes
TTITLE9=Track 3
TTITLE10=Major Buzz
TTITLE11=Home
TTITLE12=Streets Of Paris
EXTD=
EXTT0=
EXTT1=
EXTT2=
EXTT3=
EXTT4=
EXTT5=
EXTT6=
EXTT7=
EXTT8=
EXTT9=
EXTT10=
EXTT11=
EXTT12=
PLAYORDER=
